<?xml version="1.0" encoding="utf-8"?>
<!-- Generator: Adobe Illustrator 19.0.0, SVG Export Plug-In . SVG Version: 6.00 Build 0)  -->
<svg version="1.1" id="Ebene_1" xmlns="http://www.w3.org/2000/svg" xmlns:xlink="http://www.w3.org/1999/xlink" x="0px" y="0px"
	 viewBox="-112.2 145.3 455.8 272.1" style="enable-background:new -112.2 145.3 455.8 272.1;" xml:space="preserve">
<path d="M103.8,328.7c-12.3-8.6-18.5,12.1-22.5,18s-9.8,8-15,11.3c-2-2.5-2.4-6.6-2.3-11.3c9.6-1.5,23.4-12.6,11.3-20.3
	c-13,0.2-23.7,29.1-14.3,36.8c5.6,4.5,13.3-1.5,18-6c-0.2,5.7,2,9,6.8,9.8c5.7-4,6.6-12.9,11.3-18c-3.8,17.3,0,41.9-12,54.7
	c-7.9-5.4-7-19.5-12.8-27c-4.5,17.5,9.7,41.5,21,29.3c5.6-6.1,12.2-37.2,13.5-51C107.5,347.1,109.2,332.6,103.8,328.7z M73,331.7
	c0.3,2.8-4.1,7.4-7.5,9C67.5,337.2,69.7,333.9,73,331.7z M86.5,353.5c-0.6-7.4,5.5-14.5,9.8-19.5C95.4,339.9,88.6,346.3,86.5,353.5z
	"/>
<path d="M-47.7,214.7c-6,0.7-6.5-11.4-6-15c2.1-15.3,17.6-20,24.8-29.3c4.4-5.7,4.3-13.5-3-18c-13.7-4.3-18.2,11.6-27,10.5
	c-5.2-0.7-5.5-5.9-9.8-9c-9.5,3.3-6.2,21.2-0.8,26.3c-11.5-4.8-10-27.3-0.8-32.3c7.4,0.5,6.6,7.9,12.8,8.3c6.9,0.4,9-9,16.5-10.5
	c12.2-2.5,24.4,6.9,21.8,21C-22.6,184.4-55.7,188-47.7,214.7z"/>
<path d="M-59,173.5c-0.5,11.6-3.8,28.1-2.3,45c7.1-0.6,21.2-2.5,26.3,2.3c-8.3,0.5-17.9-1.3-25.5,0c2.6,15,6.1,24.6,12.8,35.3
	c-3.2-0.2-4.3-5-6-8.3c-3.5-6.8-7.8-16-9-26.3c-4.7,0.5-7.4,3.1-12,3.8c2.3-3.4,6.9-4.6,11.3-6C-66.3,203.1-63.8,187.2-59,173.5z"/>
<path d="M182.5,173.5c5.4-0.6,6.4,2.3,8.3,6.8c-1.8,1-2.8,2.7-6,2.3C182.5,180.1,182,177.2,182.5,173.5z"/>
<path d="M-68.7,199c-5.5-5.6-12.8-18.3-22.5-16.5c-4.2,0.8-8.9,6.1-8.3,9c1.4,6.2,17.7,9,18.8,18c1.5,12.9-19.2,20.7-15.8,38.3
	c0.7,3.6,4.7,9,9.8,9.8c19.2,3,10.7-22,23.3-31.5c-4.5,11.8-2.3,34.8-19.5,35.3c-11.5,0.3-19.1-10.9-17.3-24
	c1.3-9.5,13.3-17.4,12-24c-2-10.4-18.7-7.4-17.3-22.5c0.5-4.7,4.6-10.7,8.3-12.8C-87,172.2-67.2,183.4-68.7,199z"/>
<path d="M-17,207.2c18.9,1.3,28.2,31.4,9.8,37.5c2-5.4,7.2-11.7,5.3-20.3c-2.1-9.1-12.9-10.5-19.5-15c2.6-7.1,10.1-9.4,12-17.3
	c-5.5-15.2-26.6-3.9-28.5,8.3c-2.1-17.9,25.8-28.6,33.8-12C-4.3,196.5-10.6,203.2-17,207.2z"/>
<path d="M179.5,209.5c0-0.7,0.9-0.6,1.5-0.8c11.7,4.3,13.8,46,0.8,51C180.5,237.6,183.7,224.5,179.5,209.5z"/>
<path d="M-13.2,247c-16.1,0.9-24.5-15.7-36.8-18.8C-32.8,226.7-26,241.6-13.2,247z"/>
<path d="M336.3,307.7c0.8,0,1.5,0,2.3,0c9.7,16.2,3.8,45.8-6,58.5C333.1,344,335.6,329.7,336.3,307.7z"/>
<path d="M120.3,314.5c1.2,2.4-0.1,4.3-3,4.5c-0.3-1.4-1.6-1.9-1.5-3.8C117.5,315.3,118,313.9,120.3,314.5z"/>
<path d="M155.5,322c4.2,4.3,1.3,8.9,1.5,14.3c4.1-2.6,12.6-17.5,21-9c0.9,14.4-3.9,30.2-1.5,42.8c-17.2-0.9-7.9-23.8-7.5-37.5
	c-5.5,2.7-7.7,8-10.5,13.5c-2.5,4.9-3.5,12.2-9,14.3C142.1,349.4,152.5,331.7,155.5,322z"/>
<path d="M-4.2,344.5c-13.5-23.8-48.2,0-48,21C-58.7,341-13.9,313.5-4.2,344.5z"/>
<path d="M115.8,332.5c4.7,9.1-0.6,22.3,1.5,30.8C104.7,363.5,112.7,339.3,115.8,332.5z"/>
<path d="M-112.2,346c5.4,2.7,5.4,6.8,11.3,7.5c7.5,0.8,16.7-11.7,25.5-5.3c2.5,1.8,2.2,4.7,3.8,9.8C-82.3,346-109,367.8-112.2,346z"
	/>
<path d="M1.8,355c2.1,3.4-6.2,8.6-9.8,11.3c-13.8,1.8-19.2-4.8-26.3-9.8c-3.8,0-5.5,2-9,2.3C-31,340.4-13.5,377.6,1.8,355z"/>
<path d="M-53,375.2c2.1,0.2,2.1,2.4,3.8,3c9.3-5.3,27.3,6.9,14.3,18c3.9-10-1.3-18.3-15.8-15.8C-50.5,377.7-53.8,378.5-53,375.2z"/>
<path d="M-37.2,397.7c-1.3-3.6-10.3-4.7-10.5,0.8C-50.9,391.5-36.6,389.1-37.2,397.7z"/>
<path d="M-59.2,361.3c-0.3,1.9-0.5,3.7-0.5,5.7C-59.5,365-59.3,363.2-59.2,361.3z"/>
<g>
	<path d="M137.5,323.5c-3.8,0-4.3,3.6-6,5.3c1.5,0,3,0,4.5,0c5.2,8.3,0.6,21.3-4.5,26.3c-4.2-7.5-1.1-12.9,0-26.3
		c-0.3,0.3-1.2-0.2-1.5,0c-5.1,3.6-12.7,29.8-2.3,33C145.5,367.1,152.2,323.4,137.5,323.5z"/>
</g>
<path d="M338.5,307.7c-0.8,0-1.5,0-2.3,0c-0.7,22-3.1,36.3-3.8,58.5C342.3,353.5,348.2,323.9,338.5,307.7z"/>
<path d="M66.3,199.7c1.8,3.7,8.3,2.7,11.3,5.3c1.1,19-0.5,39.4,1.5,55.5c0.3,0.3,0.5,0.5,2.3,0.8c5.1,0.1,4.3-5.7,6-9
	c-0.1,4.3,1.9,5.9,4.5,6.8c13.3,4.4,26.5-32.1,30-42.8c-0.4,4.9-1.4,15.3-1.5,21c-0.3,9.7-2.4,21.4,3.8,27c3-8.8,4.4-15.3,4.5-26.3
	c0-5.6-0.2-26-5.3-27c-3.5-0.7-7.2,7.9-8.3,9.8c-6.7,12-11.6,28.1-21.8,31.5c1-9.9,2.6-15.2,6.2-20.8c8.1-12.4,19.6-14.1,13.3-22.7
	c-0.7-0.3-1-1-2.3-0.8c-13.6,4.2-17.3,18.2-23.3,30c0.5-9.7-0.8-25.5-1.5-32.3c3.5-2.4,8.2-5.4,8.3-9c-2.9-2-5-0.3-8.3-2.3
	c-1.2-9.8-0.5-25.3,4.5-40.5c1.8-2.2,6-2,6.8-5.3c-2.1-3.2-6.1-0.2-7.5,0.8c-11.1,7.6-10.2,34-12,45.8
	C72.5,195.5,67.5,195.8,66.3,199.7z"/>
<path d="M-56,386.5c6.7,6.6,2.7,19.3-3,25.5c-5-5.7-13.9-14.8-5.3-21.8c0.5,1.5-1.2,5.2,1.5,4.5c1.5-10.1,2.2-14,3.8-22.5
	c0.3,4.1,0.2,9.5,3.8,12c0.2-5.5-1.7-7.6,0-12c3.6-0.6,10,1.5,11.3-1.5c-10.7,0-11.9-1.4-10.5-10.5c1.2-8.2,4.7-15.3,9-22.5
	c3.6-6,10.1-12.4,12-18.8c5-16.6-3.9-23.3-12.8-34.5c0.4-5.4-0.1-9.9-3.8-11.3c2.1,6-1.5,9.7,0,14.3c2.5,7.5,10.5,9.7,11.3,20.3
	c0.2,2.2-0.2,6.1-0.8,8.3c-3.6,14.3-16.9,28.9-19.7,45.3c-0.1,1.8-0.2,3.7-0.5,5.7c0-1.9,0.2-3.8,0.5-5.7
	c0.9-21.3-11.7-34.1-8.8-53.6c2.5-17.1,22.4-24.4,14.3-42c2.2,15.6-13.8,22.7-17.3,37.5c-3.2,13.6,5.1,29.3,6.8,44.3
	c0.3,3.1,0.5,6.4,0.8,9.8c0.2,2.7,1.8,7.9-1.5,9.8c0-17.4-15.5-60-37.5-39.8c23.4-11.6,30.7,20.9,33.8,39c-0.5,1.5-3.8,0.2-3,3
	c0.7,2.1,3.7,1.8,5.3,3c-4.8,3.7-26.3,1.1-18,10.5c2.7-12,16.6,0.5,21.8-9c-0.5,2.5-1.1,9.3-0.8,13.5c-4.7-2.3-5.9,3.6-9.8,4.5
	c-1.6-8.9-18.5-3.2-9,3c-0.4-3.1,0.9-4.6,3-5.3c2.9,1.6,5.6,3.9,8.3,3.8c-3.5,10.5,5.2,15.2,11.3,20.3c0,1.1-2.8,3.1-0.8,3.8
	c0.5-4.4,3.2,0.3,4.5-1.5c-1-0.5-1.4-1.6-1.5-3C-51.2,408.8-43.8,386.9-56,386.5z"/>
<path d="M219.3,321.2c3.5-5.6,7.6-12.4,8.3-18.8c-5.6-6.6-14.6,0.7-19.5,5.3c1.6,15.7-3.2,41.7,0,57.8c-2.4,0.4-3.5-0.5-5.3-0.8
	C232,390.4,258.3,305.3,219.3,321.2z M216.3,309.2c1.1,0.2,0.3,2.2,1.5,2.3c-0.5,1-1.6,1.4-3,1.5
	C214.1,310.6,215.4,310.1,216.3,309.2z M215.5,363.2c2.2-6.8,1.4-23.1,1.5-34.5c3.4-1.1,6.9-6.1,11.3-3.8
	C237.3,336.8,225.1,356.3,215.5,363.2z"/>
<g>
	<path d="M67,153.2c-13.1-7.6-26.8,11.1-33.8,16.5c0.2-2.9-0.3-5.2-3.8-4.5c-8.7,33.3-8.2,81.3,2.3,115.5c4.1-29,2.8-56.9,3.8-82.5
		c10-3.6,19.9-10.5,27-18C69.4,173,76.6,158.8,67,153.2z M34.9,193.3c-3.2-19.4,19.5-30.1,21.6-28C58.5,167.3,52.6,182.1,34.9,193.3
		z"/>
</g>
<g>
	<path d="M160,199c-7.4,4.5-17.6,12.8-21.8,25.5c-3.4,10.3-5.5,33.6,2.3,35.3c9.9,2.1,13.4-13.1,17.3-19.5c0.2,9.3-0.3,18,9,19.5
		c2.1-31.2,4.1-62.1,4.5-90.8C160.5,170.4,162.3,189.1,160,199z M145,249.2c-5.4-11.4,1.8-31.4,11.3-40.5
		C158.3,218,151.4,239,145,249.2z"/>
</g>
<g>
	<path d="M37,331.7c7.2-4.4,26.3-22.5,14.3-29.3c-9.6-5.4-22.1,5.2-27.8,13.5c3.9,22.4-5.8,42.3-3,65.2c10.2-12.8,9.7-31.6,9.8-45.7
		c15.9,4.1,14.1,25.9,27.8,32.3C54.9,354.8,49.4,337.8,37,331.7z M40,311.5c-0.1,4.6-6.2,9.8-9,14.3C28.5,318.5,35.8,314.6,40,311.5
		z"/>
</g>
<g>
	<path d="M330.3,337c-4.9,8.1-12.8,16.5-21.8,18c-3.7-2-4.8-5.8-4.5-11.9c13.6-0.9,19.8-10.7,19.7-14.2c-0.2-2.2-3-5.4-9.9-3.9
		c-7.6,2-12.7,11-13.5,17.3c-3.8-4.8-12.9-7.7-17.3-7.5c1.9-3.6,6.3-4.7,8.3-8.3c-1.7-1.5-1.4-5.1-4.5-5.3
		c-7.4,4.5-17.8,11.8-13.5,23.3c7.9,2.7,15.6-4.2,19.5,3c-3,9.8-16.6,14.2-21,3c-0.1,2.8-1.8,6.6-0.8,8.3c9.2,11.8,26.2,3,30-7.5
		c-0.3,4.8,1.4,7.6,4.5,9c13,1.3,17.4-6.7,21.8-14.3C328.9,343.1,332.2,339.2,330.3,337z M316.7,329.3c2.2,4.2-5,7.9-11.1,9.6
		C306.2,334.6,312,329.3,316.7,329.3z"/>
</g>
<g>
	<path d="M266.5,327.2c-3.3-3.3-5.7-2.8-9.8-2.3c-13.1,4.3-27.6,35.8-16.5,38.3c18.3-1.5,19.6-17.2,24.2-29.1
		c-3.1,19-5.1,26.5,0.6,33.6C270,354.3,269.3,342.2,266.5,327.2z M243.3,358c-5-5,8.5-26.6,13.5-24.4
		C259.3,336.1,247.7,358,243.3,358z"/>
</g>
</svg>
